STARTFONT 2.3
FONT -FontForge-Zen Loop-Book-R-Normal--12-120-72-72-P-38-ISO10646-1
SIZE 12 72 72  4
FONTBOUNDINGBOX 11 15 -2 -4
COMMENT "Generated by fontforge, http://fontforge.sourceforge.net"
COMMENT "Copyright 2021 The Zen-Loop Project Authors (https://github.com/googlefonts/zen-loop)"
STARTPROPERTIES 40
FOUNDRY "FontForge"
FAMILY_NAME "Zen Loop"
WEIGHT_NAME "Book"
SLANT "R"
SETWIDTH_NAME "Normal"
ADD_STYLE_NAME ""
PIXEL_SIZE 12
POINT_SIZE 120
RESOLUTION_X 72
RESOLUTION_Y 72
SPACING "P"
AVERAGE_WIDTH 38
CHARSET_REGISTRY "ISO10646"
CHARSET_ENCODING "1"
FONTNAME_REGISTRY ""
CHARSET_COLLECTIONS "ISO10646-1"
BITS_PER_PIXEL 4
FONT_NAME "ZenLoop-Regular"
FACE_NAME "Zen Loop Regular"
COPYRIGHT "Copyright 2021 The Zen-Loop Project Authors (https://github.com/googlefonts/zen-loop)"
FONT_VERSION "1.000; ttfautohint (v1.8.3)"
FONT_ASCENT 10
FONT_DESCENT 2
UNDERLINE_POSITION -2
UNDERLINE_THICKNESS 1
X_HEIGHT 5
CAP_HEIGHT 8
RAW_ASCENT 800
RAW_DESCENT 200
NORM_SPACE 3
RELATIVE_WEIGHT 40
RELATIVE_SETWIDTH 50
SUPERSCRIPT_X 0
SUPERSCRIPT_Y 4
SUPERSCRIPT_SIZE 7
SUBSCRIPT_X 0
SUBSCRIPT_Y 0
SUBSCRIPT_SIZE 7
AVG_LOWERCASE_WIDTH 35
AVG_UPPERCASE_WIDTH 45
ENDPROPERTIES
CHARS 248
STARTCHAR CR
ENCODING 13
SWIDTH 600 0
DWIDTH 7 0
BBX 1 1 0 0
BITMAP
00
ENDCHAR
STARTCHAR space
ENCODING 32
SWIDTH 240 0
DWIDTH 3 0
BBX 1 1 0 0
BITMAP
00
ENDCHAR
STARTCHAR exclam
ENCODING 33
SWIDTH 141 0
DWIDTH 2 0
BBX 1 9 0 0
BITMAP
40
40
40
40
40
40
20
10
40
ENDCHAR
STARTCHAR quotedbl
ENCODING 34
SWIDTH 195 0
DWIDTH 2 0
BBX 2 3 0 6
BITMAP
44
44
11
ENDCHAR
STARTCHAR numbersign
ENCODING 35
SWIDTH 454 0
DWIDTH 5 0
BBX 6 9 0 0
BITMAP
003040
004040
013130
174651
040400
040400
374730
040400
130300
ENDCHAR
STARTCHAR dollar
ENCODING 36
SWIDTH 356 0
DWIDTH 4 0
BBX 4 12 0 -2
BITMAP
0010
1563
4132
4130
1530
0260
0154
0134
4134
2574
0130
0010
ENDCHAR
STARTCHAR percent
ENCODING 37
SWIDTH 470 0
DWIDTH 6 0
BBX 6 9 0 0
BITMAP
243010
404040
404400
404400
044200
004430
014331
042221
040550
ENDCHAR
STARTCHAR ampersand
ENCODING 38
SWIDTH 520 0
DWIDTH 6 0
BBX 6 9 0 0
BITMAP
005500
004400
004400
007100
045032
233140
400710
400620
244233
ENDCHAR
STARTCHAR quotesingle
ENCODING 39
SWIDTH 121 0
DWIDTH 1 0
BBX 1 3 0 6
BITMAP
40
40
10
ENDCHAR
STARTCHAR parenleft
ENCODING 40
SWIDTH 233 0
DWIDTH 3 0
BBX 3 10 0 -1
BITMAP
0020
0400
0400
0300
2200
2200
1300
0400
0400
0130
ENDCHAR
STARTCHAR parenright
ENCODING 41
SWIDTH 233 0
DWIDTH 3 0
BBX 2 10 0 -1
BITMAP
40
13
04
04
04
04
04
04
12
30
ENDCHAR
STARTCHAR asterisk
ENCODING 42
SWIDTH 313 0
DWIDTH 4 0
BBX 4 3 0 6
BITMAP
0300
2741
0440
ENDCHAR
STARTCHAR plus
ENCODING 43
SWIDTH 577 0
DWIDTH 7 0
BBX 7 6 0 0
BITMAP
00030000
00040000
00040000
14474410
00040000
00040000
ENDCHAR
STARTCHAR comma
ENCODING 44
SWIDTH 145 0
DWIDTH 2 0
BBX 1 3 0 -2
BITMAP
10
40
50
ENDCHAR
STARTCHAR hyphen
ENCODING 45
SWIDTH 286 0
DWIDTH 3 0
BBX 3 1 0 3
BITMAP
2440
ENDCHAR
STARTCHAR period
ENCODING 46
SWIDTH 181 0
DWIDTH 2 0
BBX 2 2 0 0
BITMAP
01
13
ENDCHAR
STARTCHAR slash
ENCODING 47
SWIDTH 292 0
DWIDTH 4 0
BBX 4 10 0 -1
BITMAP
0004
0031
0040
0040
0310
0400
0400
3100
4000
4000
ENDCHAR
STARTCHAR zero
ENCODING 48
SWIDTH 378 0
DWIDTH 5 0
BBX 5 9 0 0
BITMAP
044200
220400
400400
400400
400310
400400
400400
220400
054200
ENDCHAR
STARTCHAR one
ENCODING 49
SWIDTH 303 0
DWIDTH 4 0
BBX 4 9 0 0
BITMAP
2700
0400
0400
0400
0400
0400
0400
0400
2741
ENDCHAR
STARTCHAR two
ENCODING 50
SWIDTH 343 0
DWIDTH 4 0
BBX 4 9 0 0
BITMAP
1542
2004
0004
0004
0041
0230
0500
4100
5443
ENDCHAR
STARTCHAR three
ENCODING 51
SWIDTH 377 0
DWIDTH 5 0
BBX 4 9 0 0
BITMAP
0543
1004
0004
0463
0435
0005
0004
0004
3442
ENDCHAR
STARTCHAR four
ENCODING 52
SWIDTH 389 0
DWIDTH 5 0
BBX 5 9 0 0
BITMAP
003100
004000
013000
040400
040400
310400
444710
000400
000400
ENDCHAR
STARTCHAR five
ENCODING 53
SWIDTH 372 0
DWIDTH 4 0
BBX 4 10 0 0
BITMAP
0002
0642
0400
0400
0741
4405
2203
0004
0004
3443
ENDCHAR
STARTCHAR six
ENCODING 54
SWIDTH 360 0
DWIDTH 4 0
BBX 4 9 0 0
BITMAP
0050
0410
0400
3200
4342
4104
4004
4004
0543
ENDCHAR
STARTCHAR seven
ENCODING 55
SWIDTH 321 0
DWIDTH 4 0
BBX 4 9 0 0
BITMAP
3444
0031
0040
0040
0220
0400
0400
1300
4000
ENDCHAR
STARTCHAR eight
ENCODING 56
SWIDTH 377 0
DWIDTH 5 0
BBX 4 9 0 0
BITMAP
0543
4004
4004
0524
0470
2305
4004
4004
1543
ENDCHAR
STARTCHAR nine
ENCODING 57
SWIDTH 360 0
DWIDTH 4 0
BBX 4 9 0 -1
BITMAP
1542
4004
4004
4005
0444
0004
0032
0050
0410
ENDCHAR
STARTCHAR colon
ENCODING 58
SWIDTH 181 0
DWIDTH 2 0
BBX 2 7 0 0
BITMAP
01
13
00
00
00
01
13
ENDCHAR
STARTCHAR semicolon
ENCODING 59
SWIDTH 165 0
DWIDTH 2 0
BBX 1 9 0 -2
BITMAP
10
40
00
00
00
00
10
40
50
ENDCHAR
STARTCHAR less
ENCODING 60
SWIDTH 482 0
DWIDTH 6 0
BBX 6 5 0 0
BITMAP
000440
044000
252000
002420
000021
ENDCHAR
STARTCHAR equal
ENCODING 61
SWIDTH 577 0
DWIDTH 7 0
BBX 7 3 0 2
BITMAP
14444410
00000000
14444410
ENDCHAR
STARTCHAR greater
ENCODING 62
SWIDTH 482 0
DWIDTH 6 0
BBX 6 6 0 0
BITMAP
220000
034100
000351
001430
143000
100000
ENDCHAR
STARTCHAR question
ENCODING 63
SWIDTH 300 0
DWIDTH 4 0
BBX 3 9 0 0
BITMAP
3550
1040
0040
0140
0500
0400
0200
0100
0400
ENDCHAR
STARTCHAR at
ENCODING 64
SWIDTH 748 0
DWIDTH 9 0
BBX 9 9 0 0
BITMAP
0044444000
0410230500
2201340230
4004020040
4004230040
4031440130
2240700500
0424344200
0044444200
ENDCHAR
STARTCHAR A
ENCODING 65
SWIDTH 414 0
DWIDTH 5 0
BBX 5 9 0 0
BITMAP
006000
007000
032300
040400
040400
074700
310130
400040
400040
ENDCHAR
STARTCHAR B
ENCODING 66
SWIDTH 375 0
DWIDTH 5 0
BBX 4 9 0 0
BITMAP
4442
4004
4004
4344
4255
4004
4004
4004
4442
ENDCHAR
STARTCHAR C
ENCODING 67
SWIDTH 366 0
DWIDTH 4 0
BBX 4 9 0 0
BITMAP
0444
1300
4000
4000
4000
4000
4000
1300
0444
ENDCHAR
STARTCHAR D
ENCODING 68
SWIDTH 396 0
DWIDTH 5 0
BBX 5 9 0 0
BITMAP
444300
400400
400220
400130
400040
400130
400210
400400
444300
ENDCHAR
STARTCHAR E
ENCODING 69
SWIDTH 309 0
DWIDTH 4 0
BBX 4 9 0 0
BITMAP
4441
4000
4000
4000
4440
4000
4000
4000
4441
ENDCHAR
STARTCHAR F
ENCODING 70
SWIDTH 299 0
DWIDTH 4 0
BBX 4 9 0 0
BITMAP
4441
4000
4000
4000
4440
4000
4000
4000
4000
ENDCHAR
STARTCHAR G
ENCODING 71
SWIDTH 382 0
DWIDTH 5 0
BBX 5 9 0 0
BITMAP
044400
130000
400000
400000
400000
402410
400220
130220
044410
ENDCHAR
STARTCHAR H
ENCODING 72
SWIDTH 425 0
DWIDTH 5 0
BBX 5 9 0 0
BITMAP
300030
400040
400040
400040
444440
400040
400040
400040
400040
ENDCHAR
STARTCHAR I
ENCODING 73
SWIDTH 141 0
DWIDTH 2 0
BBX 1 9 0 0
BITMAP
40
40
40
40
40
40
40
40
40
ENDCHAR
STARTCHAR J
ENCODING 74
SWIDTH 142 0
DWIDTH 2 0
BBX 2 11 -1 -2
BITMAP
04
04
04
04
04
04
04
04
04
04
43
ENDCHAR
STARTCHAR K
ENCODING 75
SWIDTH 401 0
DWIDTH 5 0
BBX 5 9 0 0
BITMAP
040310
040400
043100
477000
572300
040400
040400
040210
040030
ENDCHAR
STARTCHAR L
ENCODING 76
SWIDTH 347 0
DWIDTH 4 0
BBX 4 9 0 0
BITMAP
4000
4000
4000
4000
4000
4000
4000
4000
4443
ENDCHAR
STARTCHAR M
ENCODING 77
SWIDTH 534 0
DWIDTH 6 0
BBX 6 9 0 0
BITMAP
071044
045424
132504
224404
312704
402504
402504
400004
300004
ENDCHAR
STARTCHAR N
ENCODING 78
SWIDTH 422 0
DWIDTH 5 0
BBX 5 9 0 0
BITMAP
420040
440040
440040
413040
404040
403140
400440
400440
400140
ENDCHAR
STARTCHAR O
ENCODING 79
SWIDTH 446 0
DWIDTH 5 0
BBX 5 9 0 0
BITMAP
044500
130040
400040
400040
400040
400040
400040
130040
044500
ENDCHAR
STARTCHAR P
ENCODING 80
SWIDTH 341 0
DWIDTH 4 0
BBX 4 9 0 0
BITMAP
4442
4004
4004
4004
4440
4000
4000
4000
3000
ENDCHAR
STARTCHAR Q
ENCODING 81
SWIDTH 446 0
DWIDTH 5 0
BBX 5 13 0 -4
BITMAP
044500
130040
400040
400040
400040
510050
451460
137240
047700
006300
006000
005200
003000
ENDCHAR
STARTCHAR R
ENCODING 82
SWIDTH 380 0
DWIDTH 5 0
BBX 5 9 0 0
BITMAP
444300
400400
400400
743400
746100
400400
400400
400400
300130
ENDCHAR
STARTCHAR S
ENCODING 83
SWIDTH 356 0
DWIDTH 4 0
BBX 4 9 0 0
BITMAP
1443
4001
4000
1400
0240
0014
0004
3004
2443
ENDCHAR
STARTCHAR T
ENCODING 84
SWIDTH 377 0
DWIDTH 5 0
BBX 5 9 0 0
BITMAP
347410
004000
004000
004000
004000
004000
004000
004000
004000
ENDCHAR
STARTCHAR U
ENCODING 85
SWIDTH 412 0
DWIDTH 5 0
BBX 5 9 0 0
BITMAP
400040
400040
400040
400040
400040
400040
400040
400030
054500
ENDCHAR
STARTCHAR V
ENCODING 86
SWIDTH 384 0
DWIDTH 5 0
BBX 5 9 0 0
BITMAP
400040
400220
400400
130400
040400
041300
043000
025000
006000
ENDCHAR
STARTCHAR W
ENCODING 87
SWIDTH 534 0
DWIDTH 6 0
BBX 6 9 0 0
BITMAP
300004
400004
400004
403504
314504
221604
133504
044234
070034
ENDCHAR
STARTCHAR X
ENCODING 88
SWIDTH 318 0
DWIDTH 4 0
BBX 4 9 0 0
BITMAP
4003
2130
0440
0430
0420
0440
1340
4013
4004
ENDCHAR
STARTCHAR Y
ENCODING 89
SWIDTH 370 0
DWIDTH 4 0
BBX 5 9 0 0
BITMAP
400220
400400
040400
044000
026000
004000
004000
004000
004000
ENDCHAR
STARTCHAR Z
ENCODING 90
SWIDTH 309 0
DWIDTH 4 0
BBX 4 9 0 0
BITMAP
2444
0040
0040
0130
0400
0400
1300
4000
6442
ENDCHAR
STARTCHAR bracketleft
ENCODING 91
SWIDTH 193 0
DWIDTH 2 0
BBX 3 11 0 -1
BITMAP
2410
4000
4000
4000
4000
4000
4000
4000
4000
4000
2410
ENDCHAR
STARTCHAR backslash
ENCODING 92
SWIDTH 292 0
DWIDTH 4 0
BBX 4 10 0 -1
BITMAP
4000
4000
3100
0400
0400
0310
0040
0040
0031
0003
ENDCHAR
STARTCHAR bracketright
ENCODING 93
SWIDTH 193 0
DWIDTH 2 0
BBX 2 11 0 -1
BITMAP
44
04
04
04
04
04
04
04
04
04
44
ENDCHAR
STARTCHAR asciicircum
ENCODING 94
SWIDTH 416 0
DWIDTH 5 0
BBX 5 5 0 4
BITMAP
006000
033300
040400
220220
400040
ENDCHAR
STARTCHAR underscore
ENCODING 95
SWIDTH 556 0
DWIDTH 7 0
BBX 6 1 0 -1
BITMAP
244444
ENDCHAR
STARTCHAR grave
ENCODING 96
SWIDTH 201 0
DWIDTH 2 0
BBX 2 2 0 7
BITMAP
10
04
ENDCHAR
STARTCHAR a
ENCODING 97
SWIDTH 315 0
DWIDTH 4 0
BBX 4 6 0 0
BITMAP
2440
0040
0060
2440
4040
4462
ENDCHAR
STARTCHAR b
ENCODING 98
SWIDTH 298 0
DWIDTH 4 0
BBX 4 9 0 0
BITMAP
4000
4000
4000
4440
4040
4031
4031
4040
4440
ENDCHAR
STARTCHAR c
ENCODING 99
SWIDTH 275 0
DWIDTH 3 0
BBX 3 6 0 0
BITMAP
1540
4010
4000
4000
4010
1540
ENDCHAR
STARTCHAR d
ENCODING 100
SWIDTH 298 0
DWIDTH 4 0
BBX 3 9 0 0
BITMAP
0030
0040
0040
1470
4040
4040
4040
4040
1470
ENDCHAR
STARTCHAR e
ENCODING 101
SWIDTH 285 0
DWIDTH 3 0
BBX 3 6 0 0
BITMAP
1540
4040
4450
4000
4010
1540
ENDCHAR
STARTCHAR f
ENCODING 102
SWIDTH 178 0
DWIDTH 2 0
BBX 3 9 0 0
BITMAP
0430
1300
1200
5600
1200
1200
1200
1200
1200
ENDCHAR
STARTCHAR g
ENCODING 103
SWIDTH 302 0
DWIDTH 4 0
BBX 4 9 0 -2
BITMAP
0030
1570
4031
3040
1630
3300
2253
4004
4443
ENDCHAR
STARTCHAR h
ENCODING 104
SWIDTH 307 0
DWIDTH 4 0
BBX 4 9 0 0
BITMAP
4000
4000
4000
4550
4031
4031
4031
4031
4021
ENDCHAR
STARTCHAR i
ENCODING 105
SWIDTH 141 0
DWIDTH 2 0
BBX 1 8 0 0
BITMAP
40
00
40
40
40
40
40
40
ENDCHAR
STARTCHAR j
ENCODING 106
SWIDTH 141 0
DWIDTH 2 0
BBX 2 10 -1 -2
BITMAP
04
00
04
04
04
04
04
04
04
44
ENDCHAR
STARTCHAR k
ENCODING 107
SWIDTH 287 0
DWIDTH 3 0
BBX 4 9 0 0
BITMAP
4000
4000
4000
4040
4220
4620
4040
4040
4031
ENDCHAR
STARTCHAR l
ENCODING 108
SWIDTH 141 0
DWIDTH 2 0
BBX 1 9 0 0
BITMAP
40
40
40
40
40
40
40
40
40
ENDCHAR
STARTCHAR m
ENCODING 109
SWIDTH 407 0
DWIDTH 5 0
BBX 5 6 0 0
BITMAP
451540
408040
408040
405040
400040
400040
ENDCHAR
STARTCHAR n
ENCODING 110
SWIDTH 307 0
DWIDTH 4 0
BBX 4 6 0 0
BITMAP
4550
4031
4031
4031
4031
4021
ENDCHAR
STARTCHAR o
ENCODING 111
SWIDTH 309 0
DWIDTH 4 0
BBX 4 6 0 0
BITMAP
1540
4031
4013
4013
4031
1540
ENDCHAR
STARTCHAR p
ENCODING 112
SWIDTH 299 0
DWIDTH 4 0
BBX 4 9 0 -2
BITMAP
3000
6440
4040
4031
4031
4040
4440
4000
4000
ENDCHAR
STARTCHAR q
ENCODING 113
SWIDTH 286 0
DWIDTH 3 0
BBX 4 8 0 -2
BITMAP
1570
4040
4040
4040
4040
1570
0040
0032
ENDCHAR
STARTCHAR r
ENCODING 114
SWIDTH 277 0
DWIDTH 3 0
BBX 3 6 0 0
BITMAP
4550
4020
4000
4000
4000
4000
ENDCHAR
STARTCHAR s
ENCODING 115
SWIDTH 257 0
DWIDTH 3 0
BBX 3 6 0 0
BITMAP
3430
4000
2400
0230
1040
4440
ENDCHAR
STARTCHAR t
ENCODING 116
SWIDTH 207 0
DWIDTH 2 0
BBX 2 8 0 0
BITMAP
02
04
37
04
04
04
04
05
ENDCHAR
STARTCHAR u
ENCODING 117
SWIDTH 307 0
DWIDTH 4 0
BBX 3 6 0 0
BITMAP
4040
4040
4040
4040
4040
3470
ENDCHAR
STARTCHAR v
ENCODING 118
SWIDTH 285 0
DWIDTH 3 0
BBX 4 6 0 0
BITMAP
4021
4040
3140
0440
0530
0600
ENDCHAR
STARTCHAR w
ENCODING 119
SWIDTH 396 0
DWIDTH 5 0
BBX 5 6 0 0
BITMAP
400040
405040
417130
407220
436400
340700
ENDCHAR
STARTCHAR x
ENCODING 120
SWIDTH 244 0
DWIDTH 3 0
BBX 3 6 0 0
BITMAP
4040
2510
0700
0800
3230
4040
ENDCHAR
STARTCHAR y
ENCODING 121
SWIDTH 285 0
DWIDTH 3 0
BBX 4 8 0 -2
BITMAP
4021
4040
3140
0440
0620
0500
0400
3300
ENDCHAR
STARTCHAR z
ENCODING 122
SWIDTH 233 0
DWIDTH 3 0
BBX 3 6 0 0
BITMAP
2450
0310
0400
0400
3000
6420
ENDCHAR
STARTCHAR braceleft
ENCODING 123
SWIDTH 306 0
DWIDTH 4 0
BBX 4 11 0 -1
BITMAP
0042
0040
0040
0040
0030
2320
0040
0040
0040
0040
0042
ENDCHAR
STARTCHAR bar
ENCODING 124
SWIDTH 141 0
DWIDTH 2 0
BBX 1 10 0 -1
BITMAP
40
40
40
40
40
40
40
40
40
40
ENDCHAR
STARTCHAR braceright
ENCODING 125
SWIDTH 306 0
DWIDTH 4 0
BBX 4 11 0 -1
BITMAP
4300
0400
0400
0400
0300
0331
0400
0400
0400
0400
4300
ENDCHAR
STARTCHAR asciitilde
ENCODING 126
SWIDTH 433 0
DWIDTH 5 0
BBX 5 2 0 3
BITMAP
143020
202420
ENDCHAR
STARTCHAR uni00A0
ENCODING 160
SWIDTH 240 0
DWIDTH 3 0
BBX 1 1 0 0
BITMAP
00
ENDCHAR
STARTCHAR exclamdown
ENCODING 161
SWIDTH 141 0
DWIDTH 2 0
BBX 1 9 0 -2
BITMAP
40
10
20
40
40
40
40
40
40
ENDCHAR
STARTCHAR cent
ENCODING 162
SWIDTH 275 0
DWIDTH 3 0
BBX 3 8 0 -1
BITMAP
0400
0740
3420
4400
4400
4420
0740
0400
ENDCHAR
STARTCHAR sterling
ENCODING 163
SWIDTH 331 0
DWIDTH 4 0
BBX 4 9 0 0
BITMAP
2452
4001
4000
2200
2740
0400
0400
0400
7443
ENDCHAR
STARTCHAR currency
ENCODING 164
SWIDTH 506 0
DWIDTH 6 0
BBX 6 6 0 1
BITMAP
100001
064461
040040
040040
050050
245542
ENDCHAR
STARTCHAR yen
ENCODING 165
SWIDTH 370 0
DWIDTH 4 0
BBX 5 9 0 0
BITMAP
400220
410400
041400
044000
015000
147300
004000
147300
004000
ENDCHAR
STARTCHAR brokenbar
ENCODING 166
SWIDTH 141 0
DWIDTH 2 0
BBX 1 10 0 -1
BITMAP
40
40
40
40
00
20
40
40
40
40
ENDCHAR
STARTCHAR section
ENCODING 167
SWIDTH 303 0
DWIDTH 4 0
BBX 4 11 0 -1
BITMAP
1440
4012
4000
1500
3CA0
5051
1000
0130
0022
3013
2440
ENDCHAR
STARTCHAR dieresis
ENCODING 168
SWIDTH 241 0
DWIDTH 3 0
BBX 3 1 0 7
BITMAP
4120
ENDCHAR
STARTCHAR copyright
ENCODING 169
SWIDTH 772 0
DWIDTH 9 0
BBX 9 9 0 0
BITMAP
0014442000
0341422400
1404000230
4003000040
4003000040
4004000040
1401420230
0330002400
0014442000
ENDCHAR
STARTCHAR ordfeminine
ENCODING 170
SWIDTH 231 0
DWIDTH 3 0
BBX 3 3 0 5
BITMAP
2600
1610
4620
ENDCHAR
STARTCHAR guillemotleft
ENCODING 171
SWIDTH 403 0
DWIDTH 5 0
BBX 5 5 0 1
BITMAP
014220
052400
415000
052300
014320
ENDCHAR
STARTCHAR logicalnot
ENCODING 172
SWIDTH 557 0
DWIDTH 7 0
BBX 7 3 0 1
BITMAP
24444420
00000130
00000020
ENDCHAR
STARTCHAR uni00AD
ENCODING 173
SWIDTH 286 0
DWIDTH 3 0
BBX 3 1 0 3
BITMAP
2440
ENDCHAR
STARTCHAR registered
ENCODING 174
SWIDTH 772 0
DWIDTH 9 0
BBX 9 9 0 0
BITMAP
0014442000
0342422400
1404040230
4004040040
4004440040
4004040040
1404040230
0330002400
0014442000
ENDCHAR
STARTCHAR macron
ENCODING 175
SWIDTH 266 0
DWIDTH 3 0
BBX 3 1 0 7
BITMAP
1420
ENDCHAR
STARTCHAR degree
ENCODING 176
SWIDTH 350 0
DWIDTH 4 0
BBX 4 4 0 5
BITMAP
0440
3104
3104
0440
ENDCHAR
STARTCHAR plusminus
ENCODING 177
SWIDTH 577 0
DWIDTH 7 0
BBX 7 6 0 0
BITMAP
00040000
00040000
14474410
00040000
00040000
14444410
ENDCHAR
STARTCHAR uni00B2
ENCODING 178
SWIDTH 207 0
DWIDTH 2 0
BBX 2 3 0 5
BITMAP
25
04
44
ENDCHAR
STARTCHAR uni00B3
ENCODING 179
SWIDTH 214 0
DWIDTH 3 0
BBX 3 3 0 5
BITMAP
1800
0310
3500
ENDCHAR
STARTCHAR acute
ENCODING 180
SWIDTH 201 0
DWIDTH 2 0
BBX 2 2 0 7
BITMAP
01
13
ENDCHAR
STARTCHAR uni00B5
ENCODING 181
SWIDTH 335 0
DWIDTH 4 0
BBX 4 8 0 -2
BITMAP
4021
4031
4031
4031
4031
4463
4000
4000
ENDCHAR
STARTCHAR paragraph
ENCODING 182
SWIDTH 471 0
DWIDTH 6 0
BBX 5 9 0 0
BITMAP
08EB40
2FFB40
4FFB40
1EFB40
038840
000440
000440
000440
000440
ENDCHAR
STARTCHAR periodcentered
ENCODING 183
SWIDTH 181 0
DWIDTH 2 0
BBX 2 2 0 3
BITMAP
01
13
ENDCHAR
STARTCHAR cedilla
ENCODING 184
SWIDTH 232 0
DWIDTH 3 0
BBX 2 2 0 -2
BITMAP
16
14
ENDCHAR
STARTCHAR uni00B9
ENCODING 185
SWIDTH 176 0
DWIDTH 2 0
BBX 2 3 0 5
BITMAP
24
04
26
ENDCHAR
STARTCHAR ordmasculine
ENCODING 186
SWIDTH 201 0
DWIDTH 2 0
BBX 3 3 0 5
BITMAP
4500
4310
4500
ENDCHAR
STARTCHAR guillemotright
ENCODING 187
SWIDTH 403 0
DWIDTH 5 0
BBX 5 5 0 1
BITMAP
324000
041500
005230
051500
314000
ENDCHAR
STARTCHAR onequarter
ENCODING 188
SWIDTH 527 0
DWIDTH 6 0
BBX 6 9 0 0
BITMAP
000013
150040
040040
171400
000400
003100
004051
022264
040021
ENDCHAR
STARTCHAR onehalf
ENCODING 189
SWIDTH 540 0
DWIDTH 6 0
BBX 6 9 0 0
BITMAP
000013
150040
040040
171400
000400
003100
004035
022013
040063
ENDCHAR
STARTCHAR threequarters
ENCODING 190
SWIDTH 517 0
DWIDTH 6 0
BBX 6 9 0 0
BITMAP
000013
180040
031040
350400
000400
003100
004042
022155
040003
ENDCHAR
STARTCHAR questiondown
ENCODING 191
SWIDTH 300 0
DWIDTH 4 0
BBX 4 9 0 -2
BITMAP
0120
0000
0120
0040
0220
0500
2200
4001
1550
ENDCHAR
STARTCHAR Agrave
ENCODING 192
SWIDTH 414 0
DWIDTH 5 0
BBX 5 10 0 0
BITMAP
013000
007000
007000
032300
040400
040400
074700
310130
400040
400040
ENDCHAR
STARTCHAR Aacute
ENCODING 193
SWIDTH 414 0
DWIDTH 5 0
BBX 5 10 0 0
BITMAP
003100
006000
007000
032300
040400
040400
074700
310130
400040
400040
ENDCHAR
STARTCHAR Acircumflex
ENCODING 194
SWIDTH 414 0
DWIDTH 5 0
BBX 5 10 0 0
BITMAP
016100
016100
007000
032300
040400
040400
074700
310130
400040
400040
ENDCHAR
STARTCHAR Atilde
ENCODING 195
SWIDTH 414 0
DWIDTH 5 0
BBX 5 10 0 0
BITMAP
012100
006000
007000
032300
040400
040400
074700
310130
400040
400040
ENDCHAR
STARTCHAR Adieresis
ENCODING 196
SWIDTH 414 0
DWIDTH 5 0
BBX 5 10 0 0
BITMAP
032200
006000
007000
032300
040400
040400
074700
310130
400040
400040
ENDCHAR
STARTCHAR Aring
ENCODING 197
SWIDTH 414 0
DWIDTH 5 0
BBX 5 11 0 0
BITMAP
014000
004000
006000
007000
032300
040400
040400
074700
310130
400040
400040
ENDCHAR
STARTCHAR AE
ENCODING 198
SWIDTH 545 0
DWIDTH 7 0
BBX 6 9 0 0
BITMAP
000744
001700
004400
005400
023543
064600
040400
410400
400444
ENDCHAR
STARTCHAR Ccedilla
ENCODING 199
SWIDTH 366 0
DWIDTH 4 0
BBX 4 11 0 -2
BITMAP
0444
1300
4000
4000
4000
4000
4000
1300
0444
0052
0032
ENDCHAR
STARTCHAR Egrave
ENCODING 200
SWIDTH 309 0
DWIDTH 4 0
BBX 4 10 0 0
BITMAP
0400
4441
4000
4000
4000
4440
4000
4000
4000
4441
ENDCHAR
STARTCHAR Eacute
ENCODING 201
SWIDTH 309 0
DWIDTH 4 0
BBX 4 10 0 0
BITMAP
0040
4431
4000
4000
4000
4440
4000
4000
4000
4441
ENDCHAR
STARTCHAR Ecircumflex
ENCODING 202
SWIDTH 309 0
DWIDTH 4 0
BBX 4 10 0 0
BITMAP
0440
4451
4000
4000
4000
4440
4000
4000
4000
4441
ENDCHAR
STARTCHAR Edieresis
ENCODING 203
SWIDTH 309 0
DWIDTH 4 0
BBX 4 10 0 0
BITMAP
0440
4441
4000
4000
4000
4440
4000
4000
4000
4441
ENDCHAR
STARTCHAR Igrave
ENCODING 204
SWIDTH 141 0
DWIDTH 2 0
BBX 1 10 0 0
BITMAP
40
40
40
40
40
40
40
40
40
40
ENDCHAR
STARTCHAR Iacute
ENCODING 205
SWIDTH 141 0
DWIDTH 2 0
BBX 2 10 0 0
BITMAP
04
30
40
40
40
40
40
40
40
40
ENDCHAR
STARTCHAR Icircumflex
ENCODING 206
SWIDTH 141 0
DWIDTH 2 0
BBX 2 10 0 0
BITMAP
53
41
40
40
40
40
40
40
40
40
ENDCHAR
STARTCHAR Idieresis
ENCODING 207
SWIDTH 141 0
DWIDTH 2 0
BBX 2 10 0 0
BITMAP
44
41
40
40
40
40
40
40
40
40
ENDCHAR
STARTCHAR Eth
ENCODING 208
SWIDTH 396 0
DWIDTH 5 0
BBX 5 9 0 0
BITMAP
444300
400400
400220
400130
641040
400130
400210
400400
444300
ENDCHAR
STARTCHAR Ntilde
ENCODING 209
SWIDTH 422 0
DWIDTH 5 0
BBX 5 10 0 0
BITMAP
012200
420040
440040
440040
413040
404040
403140
400440
400440
400140
ENDCHAR
STARTCHAR Ograve
ENCODING 210
SWIDTH 446 0
DWIDTH 5 0
BBX 5 10 0 0
BITMAP
004000
044500
130040
400040
400040
400040
400040
400040
130040
044500
ENDCHAR
STARTCHAR Oacute
ENCODING 211
SWIDTH 446 0
DWIDTH 5 0
BBX 5 10 0 0
BITMAP
001300
043500
130040
400040
400040
400040
400040
400040
130040
044500
ENDCHAR
STARTCHAR Ocircumflex
ENCODING 212
SWIDTH 446 0
DWIDTH 5 0
BBX 5 10 0 0
BITMAP
006200
044500
130040
400040
400040
400040
400040
400040
130040
044500
ENDCHAR
STARTCHAR Otilde
ENCODING 213
SWIDTH 446 0
DWIDTH 5 0
BBX 5 10 0 0
BITMAP
012200
044500
130040
400040
400040
400040
400040
400040
130040
044500
ENDCHAR
STARTCHAR Odieresis
ENCODING 214
SWIDTH 446 0
DWIDTH 5 0
BBX 5 10 0 0
BITMAP
004400
044500
130040
400040
400040
400040
400040
400040
130040
044500
ENDCHAR
STARTCHAR multiply
ENCODING 215
SWIDTH 445 0
DWIDTH 5 0
BBX 5 5 0 0
BITMAP
200040
140510
028100
052400
210120
ENDCHAR
STARTCHAR Oslash
ENCODING 216
SWIDTH 446 0
DWIDTH 5 0
BBX 5 9 0 0
BITMAP
044540
130350
400440
401340
404040
404040
431040
160040
264500
ENDCHAR
STARTCHAR Ugrave
ENCODING 217
SWIDTH 412 0
DWIDTH 5 0
BBX 5 10 0 0
BITMAP
013000
401040
400040
400040
400040
400040
400040
400040
400030
054500
ENDCHAR
STARTCHAR Uacute
ENCODING 218
SWIDTH 412 0
DWIDTH 5 0
BBX 5 10 0 0
BITMAP
003100
401040
400040
400040
400040
400040
400040
400040
400030
054500
ENDCHAR
STARTCHAR Ucircumflex
ENCODING 219
SWIDTH 412 0
DWIDTH 5 0
BBX 5 10 0 0
BITMAP
016100
410140
400040
400040
400040
400040
400040
400040
400030
054500
ENDCHAR
STARTCHAR Udieresis
ENCODING 220
SWIDTH 412 0
DWIDTH 5 0
BBX 5 10 0 0
BITMAP
032200
400040
400040
400040
400040
400040
400040
400040
400030
054500
ENDCHAR
STARTCHAR Yacute
ENCODING 221
SWIDTH 370 0
DWIDTH 4 0
BBX 5 10 0 0
BITMAP
004000
401220
400400
040400
044000
026000
004000
004000
004000
004000
ENDCHAR
STARTCHAR Thorn
ENCODING 222
SWIDTH 341 0
DWIDTH 4 0
BBX 4 9 0 0
BITMAP
3000
4000
4441
4004
4004
4004
4440
4000
4000
ENDCHAR
STARTCHAR germandbls
ENCODING 223
SWIDTH 327 0
DWIDTH 4 0
BBX 4 9 0 0
BITMAP
1540
3030
4031
4370
4361
4004
4004
4012
4340
ENDCHAR
STARTCHAR agrave
ENCODING 224
SWIDTH 315 0
DWIDTH 4 0
BBX 4 9 0 0
BITMAP
0100
0400
0000
2440
0040
0060
2440
4040
4462
ENDCHAR
STARTCHAR aacute
ENCODING 225
SWIDTH 315 0
DWIDTH 4 0
BBX 4 9 0 0
BITMAP
0010
0220
0000
2440
0040
0060
2440
4040
4462
ENDCHAR
STARTCHAR acircumflex
ENCODING 226
SWIDTH 315 0
DWIDTH 4 0
BBX 4 8 0 0
BITMAP
0530
0120
2440
0040
0060
2440
4040
4462
ENDCHAR
STARTCHAR atilde
ENCODING 227
SWIDTH 315 0
DWIDTH 4 0
BBX 4 9 0 0
BITMAP
1420
2140
0000
2440
0040
0060
2440
4040
4462
ENDCHAR
STARTCHAR adieresis
ENCODING 228
SWIDTH 315 0
DWIDTH 4 0
BBX 4 8 0 0
BITMAP
0440
0000
2440
0040
0060
2440
4040
4462
ENDCHAR
STARTCHAR aring
ENCODING 229
SWIDTH 315 0
DWIDTH 4 0
BBX 4 8 0 0
BITMAP
0320
0320
2440
0040
0060
2440
4040
4462
ENDCHAR
STARTCHAR ae
ENCODING 230
SWIDTH 450 0
DWIDTH 5 0
BBX 5 6 0 0
BITMAP
245540
005140
047450
514000
404010
344440
ENDCHAR
STARTCHAR ccedilla
ENCODING 231
SWIDTH 275 0
DWIDTH 3 0
BBX 3 8 0 -2
BITMAP
1540
4010
4000
4000
4010
1540
0420
0320
ENDCHAR
STARTCHAR egrave
ENCODING 232
SWIDTH 285 0
DWIDTH 3 0
BBX 3 9 0 0
BITMAP
0100
0400
0000
1540
4040
4450
4000
4010
1540
ENDCHAR
STARTCHAR eacute
ENCODING 233
SWIDTH 285 0
DWIDTH 3 0
BBX 3 9 0 0
BITMAP
0010
0220
0000
1540
4040
4450
4000
4010
1540
ENDCHAR
STARTCHAR ecircumflex
ENCODING 234
SWIDTH 285 0
DWIDTH 3 0
BBX 3 8 0 0
BITMAP
0530
0120
1540
4040
4450
4000
4010
1540
ENDCHAR
STARTCHAR edieresis
ENCODING 235
SWIDTH 285 0
DWIDTH 3 0
BBX 3 8 0 0
BITMAP
0440
0000
1540
4040
4450
4000
4010
1540
ENDCHAR
STARTCHAR igrave
ENCODING 236
SWIDTH 141 0
DWIDTH 2 0
BBX 1 9 0 0
BITMAP
10
40
00
40
40
40
40
40
40
ENDCHAR
STARTCHAR iacute
ENCODING 237
SWIDTH 141 0
DWIDTH 2 0
BBX 2 9 0 0
BITMAP
01
22
00
40
40
40
40
40
40
ENDCHAR
STARTCHAR icircumflex
ENCODING 238
SWIDTH 141 0
DWIDTH 2 0
BBX 2 8 0 0
BITMAP
53
12
40
40
40
40
40
40
ENDCHAR
STARTCHAR idieresis
ENCODING 239
SWIDTH 141 0
DWIDTH 2 0
BBX 2 8 0 0
BITMAP
44
00
40
40
40
40
40
40
ENDCHAR
STARTCHAR eth
ENCODING 240
SWIDTH 319 0
DWIDTH 4 0
BBX 4 9 0 0
BITMAP
0400
0561
0040
1571
4003
4004
4004
4021
1540
ENDCHAR
STARTCHAR ntilde
ENCODING 241
SWIDTH 307 0
DWIDTH 4 0
BBX 4 9 0 0
BITMAP
1420
2140
0000
4550
4031
4031
4031
4031
4021
ENDCHAR
STARTCHAR ograve
ENCODING 242
SWIDTH 309 0
DWIDTH 4 0
BBX 4 9 0 0
BITMAP
0100
0400
0000
1540
4031
4013
4013
4031
1540
ENDCHAR
STARTCHAR oacute
ENCODING 243
SWIDTH 309 0
DWIDTH 4 0
BBX 4 9 0 0
BITMAP
0010
0220
0000
1540
4031
4013
4013
4031
1540
ENDCHAR
STARTCHAR ocircumflex
ENCODING 244
SWIDTH 309 0
DWIDTH 4 0
BBX 4 8 0 0
BITMAP
0530
0120
1540
4031
4013
4013
4031
1540
ENDCHAR
STARTCHAR otilde
ENCODING 245
SWIDTH 309 0
DWIDTH 4 0
BBX 4 9 0 0
BITMAP
1420
2140
0000
1540
4031
4013
4013
4031
1540
ENDCHAR
STARTCHAR odieresis
ENCODING 246
SWIDTH 309 0
DWIDTH 4 0
BBX 4 8 0 0
BITMAP
0440
0000
1540
4031
4013
4013
4031
1540
ENDCHAR
STARTCHAR divide
ENCODING 247
SWIDTH 577 0
DWIDTH 7 0
BBX 7 6 0 0
BITMAP
00040000
00010000
00000000
14444410
00010000
00040000
ENDCHAR
STARTCHAR oslash
ENCODING 248
SWIDTH 309 0
DWIDTH 4 0
BBX 4 6 0 0
BITMAP
1571
4071
4143
4413
4431
3540
ENDCHAR
STARTCHAR ugrave
ENCODING 249
SWIDTH 307 0
DWIDTH 4 0
BBX 3 9 0 0
BITMAP
0100
0400
0000
4040
4040
4040
4040
4040
3470
ENDCHAR
STARTCHAR uacute
ENCODING 250
SWIDTH 307 0
DWIDTH 4 0
BBX 3 9 0 0
BITMAP
0010
0220
0000
4040
4040
4040
4040
4040
3470
ENDCHAR
STARTCHAR ucircumflex
ENCODING 251
SWIDTH 307 0
DWIDTH 4 0
BBX 3 8 0 0
BITMAP
0530
0120
4040
4040
4040
4040
4040
3470
ENDCHAR
STARTCHAR udieresis
ENCODING 252
SWIDTH 307 0
DWIDTH 4 0
BBX 3 8 0 0
BITMAP
0440
0000
4040
4040
4040
4040
4040
3470
ENDCHAR
STARTCHAR yacute
ENCODING 253
SWIDTH 285 0
DWIDTH 3 0
BBX 4 11 0 -2
BITMAP
0010
0310
0000
4021
4040
3140
0440
0620
0500
0400
3300
ENDCHAR
STARTCHAR thorn
ENCODING 254
SWIDTH 299 0
DWIDTH 4 0
BBX 4 11 0 -2
BITMAP
3000
4000
4000
6440
4040
4031
4031
4040
4440
4000
4000
ENDCHAR
STARTCHAR ydieresis
ENCODING 255
SWIDTH 285 0
DWIDTH 3 0
BBX 4 10 0 -2
BITMAP
0340
0000
4021
4040
3140
0440
0620
0500
0400
3300
ENDCHAR
STARTCHAR dotlessi
ENCODING 305
SWIDTH 141 0
DWIDTH 2 0
BBX 1 6 0 0
BITMAP
40
40
40
40
40
40
ENDCHAR
STARTCHAR OE
ENCODING 338
SWIDTH 505 0
DWIDTH 6 0
BBX 6 9 0 0
BITMAP
044742
130400
400400
400400
400641
400400
400400
130400
044742
ENDCHAR
STARTCHAR oe
ENCODING 339
SWIDTH 492 0
DWIDTH 6 0
BBX 6 6 0 0
BITMAP
154351
403404
401643
401400
403401
154342
ENDCHAR
STARTCHAR Wcircumflex
ENCODING 372
SWIDTH 534 0
DWIDTH 6 0
BBX 6 10 0 0
BITMAP
003500
301104
400004
400004
403504
314504
221604
133504
044234
070034
ENDCHAR
STARTCHAR wcircumflex
ENCODING 373
SWIDTH 396 0
DWIDTH 5 0
BBX 5 8 0 0
BITMAP
016000
020100
400040
405040
417130
407220
436400
340700
ENDCHAR
STARTCHAR Ycircumflex
ENCODING 374
SWIDTH 370 0
DWIDTH 4 0
BBX 5 10 0 0
BITMAP
035000
411220
400400
040400
044000
026000
004000
004000
004000
004000
ENDCHAR
STARTCHAR ycircumflex
ENCODING 375
SWIDTH 285 0
DWIDTH 3 0
BBX 4 10 0 -2
BITMAP
0620
1120
4021
4040
3140
0440
0620
0500
0400
3300
ENDCHAR
STARTCHAR Ydieresis
ENCODING 376
SWIDTH 370 0
DWIDTH 4 0
BBX 5 10 0 0
BITMAP
044000
411220
400400
040400
044000
026000
004000
004000
004000
004000
ENDCHAR
STARTCHAR uni0237
ENCODING 567
SWIDTH 141 0
DWIDTH 2 0
BBX 2 8 -1 -2
BITMAP
04
04
04
04
04
04
04
44
ENDCHAR
STARTCHAR circumflex
ENCODING 710
SWIDTH 280 0
DWIDTH 3 0
BBX 3 2 0 6
BITMAP
0620
1020
ENDCHAR
STARTCHAR ring
ENCODING 730
SWIDTH 238 0
DWIDTH 3 0
BBX 2 2 0 6
BITMAP
14
14
ENDCHAR
STARTCHAR tilde
ENCODING 732
SWIDTH 301 0
DWIDTH 4 0
BBX 3 2 0 7
BITMAP
1420
2140
ENDCHAR
STARTCHAR gravecomb
ENCODING 768
SWIDTH 0 0
DWIDTH 0 0
BBX 2 2 0 7
BITMAP
10
04
ENDCHAR
STARTCHAR acutecomb
ENCODING 769
SWIDTH 0 0
DWIDTH 0 0
BBX 2 2 0 7
BITMAP
01
13
ENDCHAR
STARTCHAR uni0302
ENCODING 770
SWIDTH 0 0
DWIDTH 0 0
BBX 3 2 0 6
BITMAP
0620
1020
ENDCHAR
STARTCHAR tildecomb
ENCODING 771
SWIDTH 0 0
DWIDTH 0 0
BBX 3 2 0 7
BITMAP
1420
2140
ENDCHAR
STARTCHAR uni0307
ENCODING 775
SWIDTH 0 0
DWIDTH 0 0
BBX 1 1 0 7
BITMAP
40
ENDCHAR
STARTCHAR uni0308
ENCODING 776
SWIDTH 0 0
DWIDTH 0 0
BBX 3 1 0 7
BITMAP
4120
ENDCHAR
STARTCHAR uni030A
ENCODING 778
SWIDTH 0 0
DWIDTH 0 0
BBX 2 2 0 6
BITMAP
14
14
ENDCHAR
STARTCHAR uni0327
ENCODING 807
SWIDTH 0 0
DWIDTH 0 0
BBX 2 2 0 -2
BITMAP
16
14
ENDCHAR
STARTCHAR Wgrave
ENCODING 7808
SWIDTH 534 0
DWIDTH 6 0
BBX 6 10 0 0
BITMAP
003100
300104
400004
400004
403504
314504
221604
133504
044234
070034
ENDCHAR
STARTCHAR wgrave
ENCODING 7809
SWIDTH 396 0
DWIDTH 5 0
BBX 5 9 0 0
BITMAP
010000
004000
000000
400040
405040
417130
407220
436400
340700
ENDCHAR
STARTCHAR Wacute
ENCODING 7810
SWIDTH 534 0
DWIDTH 6 0
BBX 6 10 0 0
BITMAP
000400
300104
400004
400004
403504
314504
221604
133504
044234
070034
ENDCHAR
STARTCHAR wacute
ENCODING 7811
SWIDTH 396 0
DWIDTH 5 0
BBX 5 9 0 0
BITMAP
001000
004000
000000
400040
405040
417130
407220
436400
340700
ENDCHAR
STARTCHAR Wdieresis
ENCODING 7812
SWIDTH 534 0
DWIDTH 6 0
BBX 6 10 0 0
BITMAP
004400
301104
400004
400004
403504
314504
221604
133504
044234
070034
ENDCHAR
STARTCHAR wdieresis
ENCODING 7813
SWIDTH 396 0
DWIDTH 5 0
BBX 5 8 0 0
BITMAP
042100
000000
400040
405040
417130
407220
436400
340700
ENDCHAR
STARTCHAR uni1E9E
ENCODING 7838
SWIDTH 375 0
DWIDTH 5 0
BBX 4 9 0 0
BITMAP
0542
3104
4004
4244
4244
4004
4004
4004
4342
ENDCHAR
STARTCHAR Ygrave
ENCODING 7922
SWIDTH 370 0
DWIDTH 4 0
BBX 5 10 0 0
BITMAP
031000
401220
400400
040400
044000
026000
004000
004000
004000
004000
ENDCHAR
STARTCHAR ygrave
ENCODING 7923
SWIDTH 285 0
DWIDTH 3 0
BBX 4 11 0 -2
BITMAP
0100
0400
0000
4021
4040
3140
0440
0620
0500
0400
3300
ENDCHAR
STARTCHAR endash
ENCODING 8211
SWIDTH 425 0
DWIDTH 5 0
BBX 5 1 0 2
BITMAP
244420
ENDCHAR
STARTCHAR emdash
ENCODING 8212
SWIDTH 770 0
DWIDTH 9 0
BBX 9 1 0 2
BITMAP
2444444430
ENDCHAR
STARTCHAR quoteleft
ENCODING 8216
SWIDTH 145 0
DWIDTH 2 0
BBX 2 3 0 6
BITMAP
32
40
20
ENDCHAR
STARTCHAR quoteright
ENCODING 8217
SWIDTH 145 0
DWIDTH 2 0
BBX 2 3 0 5
BITMAP
11
22
41
ENDCHAR
STARTCHAR quotesinglbase
ENCODING 8218
SWIDTH 145 0
DWIDTH 2 0
BBX 1 3 0 -2
BITMAP
10
40
50
ENDCHAR
STARTCHAR quotedblleft
ENCODING 8220
SWIDTH 219 0
DWIDTH 3 0
BBX 3 3 0 6
BITMAP
3510
4400
2200
ENDCHAR
STARTCHAR quotedblright
ENCODING 8221
SWIDTH 219 0
DWIDTH 3 0
BBX 2 3 0 5
BITMAP
12
26
45
ENDCHAR
STARTCHAR quotedblbase
ENCODING 8222
SWIDTH 219 0
DWIDTH 3 0
BBX 2 3 0 -2
BITMAP
12
44
55
ENDCHAR
STARTCHAR bullet
ENCODING 8226
SWIDTH 355 0
DWIDTH 4 0
BBX 4 3 0 3
BITMAP
1BD3
3FF7
0BD2
ENDCHAR
STARTCHAR ellipsis
ENCODING 8230
SWIDTH 651 0
DWIDTH 8 0
BBX 7 2 0 0
BITMAP
01010010
13030040
ENDCHAR
STARTCHAR guilsinglleft
ENCODING 8249
SWIDTH 263 0
DWIDTH 3 0
BBX 3 5 0 1
BITMAP
0140
0500
4100
0500
0140
ENDCHAR
STARTCHAR guilsinglright
ENCODING 8250
SWIDTH 263 0
DWIDTH 3 0
BBX 3 5 0 1
BITMAP
3200
0410
0050
0510
3100
ENDCHAR
STARTCHAR fraction
ENCODING 8260
SWIDTH 152 0
DWIDTH 2 0
BBX 5 9 -2 0
BITMAP
000040
000040
000410
000400
003100
004000
022000
040000
130000
ENDCHAR
STARTCHAR uni2074
ENCODING 8308
SWIDTH 247 0
DWIDTH 3 0
BBX 3 3 0 5
BITMAP
0500
3720
0300
ENDCHAR
STARTCHAR Euro
ENCODING 8364
SWIDTH 391 0
DWIDTH 5 0
BBX 5 9 0 0
BITMAP
024410
040000
040000
220000
542000
542000
130000
040000
024410
ENDCHAR
STARTCHAR trademark
ENCODING 8482
SWIDTH 506 0
DWIDTH 6 0
BBX 6 5 0 4
BITMAP
BF6836
041784
041454
041474
041203
ENDCHAR
STARTCHAR minus
ENCODING 8722
SWIDTH 557 0
DWIDTH 7 0
BBX 7 1 0 3
BITMAP
6DDDDD20
ENDCHAR
STARTCHAR uni2215
ENCODING 8725
SWIDTH 259 0
DWIDTH 3 0
BBX 3 9 0 0
BITMAP
0020
0040
0040
0220
0400
0400
2200
4000
4000
ENDCHAR
STARTCHAR .notdef
ENCODING -1
SWIDTH 500 0
DWIDTH 6 0
BBX 6 11 0 -2
BITMAP
5A99A5
630036
630036
630036
630036
630036
630036
630036
630036
630036
5A99A5
ENDCHAR
STARTCHAR NULL
ENCODING -1
SWIDTH 600 0
DWIDTH 7 0
BBX 1 1 0 0
BITMAP
00
ENDCHAR
STARTCHAR acutecomb.case
ENCODING -1
SWIDTH 0 0
DWIDTH 0 0
BBX 2 1 0 9
BITMAP
13
ENDCHAR
STARTCHAR uni0302.case
ENCODING -1
SWIDTH 0 0
DWIDTH 0 0
BBX 3 2 0 8
BITMAP
0610
1010
ENDCHAR
STARTCHAR uni0308.case
ENCODING -1
SWIDTH 0 0
DWIDTH 0 0
BBX 3 2 0 8
BITMAP
4310
1000
ENDCHAR
STARTCHAR uni0307.case
ENCODING -1
SWIDTH 0 0
DWIDTH 0 0
BBX 1 2 0 8
BITMAP
40
10
ENDCHAR
STARTCHAR gravecomb.case
ENCODING -1
SWIDTH 0 0
DWIDTH 0 0
BBX 2 2 0 8
BITMAP
13
01
ENDCHAR
STARTCHAR uni030A.case
ENCODING -1
SWIDTH 0 0
DWIDTH 0 0
BBX 2 2 0 9
BITMAP
14
14
ENDCHAR
STARTCHAR tildecomb.case
ENCODING -1
SWIDTH 0 0
DWIDTH 0 0
BBX 2 1 1 9
BITMAP
13
ENDCHAR
ENDFONT
